<svg xmlns="http://www.w3.org/2000/svg" xmlns:xlink="http://www.w3.org/1999/xlink" viewBox="0 0 25 24" version="1.1" x="0px" y="0px"><title>63 -Engine Belt- (Outline)</title><desc>Created with Sketch.</desc><g stroke="none" stroke-width="1" fill="none" fill-rule="evenodd"><g fill="#000000"><path d="M19.0111,6 C19.0111,6.552 18.5631,7 18.0111,7 C17.4591,7 17.0111,6.552 17.0111,6 C17.0111,5.448 17.4591,5 18.0111,5 C18.5631,5 19.0111,5.448 19.0111,6"></path><path d="M6.0111,16 C6.0111,16.552 5.5631,17 5.0111,17 C4.4591,17 4.0111,16.552 4.0111,16 C4.0111,15.448 4.4591,15 5.0111,15 C5.5631,15 6.0111,15.448 6.0111,16"></path><path d="M22.0111,6 C22.0111,8.20871525 20.2198153,10 18.0111,10 C15.8023847,10 14.0111,8.20871525 14.0111,6 C14.0111,3.79128475 15.8023847,2 18.0111,2 C20.2198153,2 22.0111,3.79128475 22.0111,6 Z M24.0111,6 C24.0111,2.68671525 21.3243847,0 18.0111,0 C14.6978153,0 12.0111,2.68671525 12.0111,6 C12.0111,9.31328475 14.6978153,12 18.0111,12 C21.3243847,12 24.0111,9.31328475 24.0111,6 Z"></path><path d="M8.0111,16 C8.0111,17.6567153 6.66781525,19 5.0111,19 C3.35438475,19 2.0111,17.6567153 2.0111,16 C2.0111,14.3432847 3.35438475,13 5.0111,13 C6.66781525,13 8.0111,14.3432847 8.0111,16 Z M10.0111,16 C10.0111,13.2387153 7.77238475,11 5.0111,11 C2.24981525,11 0.0111,13.2387153 0.0111,16 C0.0111,18.7612847 2.24981525,21 5.0111,21 C7.77238475,21 10.0111,18.7612847 10.0111,16 Z"></path><path d="M22.0111,20 C22.0111,21.1047153 21.1158153,22 20.0111,22 C18.9063847,22 18.0111,21.1047153 18.0111,20 C18.0111,18.8952847 18.9063847,18 20.0111,18 C21.1158153,18 22.0111,18.8952847 22.0111,20 Z M24.0111,20 C24.0111,17.7907153 22.2203847,16 20.0111,16 C17.8018153,16 16.0111,17.7907153 16.0111,20 C16.0111,22.2092847 17.8018153,24 20.0111,24 C22.2203847,24 24.0111,22.2092847 24.0111,20 Z"></path><path d="M22.0111,6 L22.0111,20 C22.0111,20.5522847 22.4588153,21 23.0111,21 C23.5633847,21 24.0111,20.5522847 24.0111,20 L24.0111,6 C24.0111,5.44771525 23.5633847,5 23.0111,5 C22.4588153,5 22.0111,5.44771525 22.0111,6 Z"></path><path d="M20.2072161,22.0194193 L5.20721614,19.0194193 C4.66565638,18.9111074 4.13883127,19.2623241 4.03051932,19.8038839 C3.92220737,20.3454436 4.27342411,20.8722687 4.81498386,20.9805807 L19.8149839,23.9805807 C20.3565436,24.0888926 20.8833687,23.7376759 20.9916807,23.1961161 C21.0999926,22.6545564 20.7487759,22.1277313 20.2072161,22.0194193 Z"></path><path d="M3.00428245,13.7698637 L14.6622824,3.75886371 C15.0812808,3.39905989 15.1292675,2.76771595 14.7694637,2.34871755 C14.4096599,1.92971916 13.7783159,1.88173247 13.3593176,2.24153629 L1.70131755,12.2525363 C1.28231916,12.6123401 1.23433247,13.2436841 1.59413629,13.6626824 C1.95394011,14.0816808 2.58528405,14.1296675 3.00428245,13.7698637 Z"></path></g></g></svg>