<svg xmlns="http://www.w3.org/2000/svg" xmlns:xlink="http://www.w3.org/1999/xlink" version="1.1" x="0px" y="0px" viewBox="0 0 100 100" enable-background="new 0 0 100 100" xml:space="preserve"><path d="M50,5H32.798C17.21,5,5,24.766,5,50s12.21,45,27.798,45H50c24.813,0,45-20.187,45-45S74.813,5,50,5z M52.786,30.786  c-2.701,1.177-5.255,2.909-7.612,5.169c1.685-3.724,3.704-6.993,5.975-9.652C51.749,27.728,52.297,29.225,52.786,30.786z   M46.777,81.564c-0.146-4.59-0.66-9.06-1.534-13.326c1.17,2.84,2.156,5.908,2.918,9.146c0.103,0.439,0.318,0.823,0.605,1.131  C48.137,79.597,47.472,80.613,46.777,81.564z M26.417,52.431c-0.719-0.622-1.114-1.485-1.114-2.431s0.396-1.809,1.114-2.431  c8.44-7.308,10.712-7.563,10.785-7.569c2.332,0,4.94,4.276,4.94,10c0,5.712-2.599,9.984-4.927,10  C37.054,59.983,34.721,59.62,26.417,52.431z M46.877,53.464c0.018-0.121,0.043-0.237,0.06-0.359c2.844,0.529,5.636,1.905,8.281,4.11  c-0.156,1.499-0.357,2.971-0.606,4.407C52.299,58.263,49.7,55.524,46.877,53.464z M47.055,48.068  c-0.017-0.209-0.039-0.416-0.061-0.622c2.765-1.311,5.625-1.788,8.49-1.403c0.073,1.302,0.112,2.621,0.112,3.957  c0,0.439-0.011,0.874-0.019,1.31C52.851,49.586,49.977,48.494,47.055,48.068z M46.784,59.989c2.29,2.289,4.391,5.182,6.196,8.582  c-0.344,1.146-0.719,2.26-1.122,3.337C50.524,67.515,48.819,63.512,46.784,59.989z M46.07,42.413  c2.435-3.019,5.153-5.312,8.011-6.722c0.374,1.708,0.683,3.473,0.922,5.284C51.99,40.755,48.977,41.244,46.07,42.413z   M42.608,29.906c0.979-4.209,2.307-8.185,3.981-11.728c0,0,0-0.001,0-0.001c0.764,1.022,1.491,2.127,2.175,3.307  C46.466,23.864,44.405,26.696,42.608,29.906z M32.798,10c3.886,0,7.547,1.719,10.752,4.74c-0.63,0.207-1.178,0.656-1.483,1.303  c-1.49,3.155-2.73,6.545-3.707,10.114c0.179-3.623,0.608-7.212,1.294-10.671c0.269-1.354-0.611-2.67-1.966-2.938  c-1.353-0.27-2.67,0.612-2.938,1.966c-0.771,3.885-1.233,7.924-1.404,11.997c-0.443-3.089-0.717-6.25-0.769-9.44  c-0.022-1.367-1.138-2.459-2.499-2.459c-0.014,0-0.028,0-0.042,0c-1.38,0.022-2.481,1.16-2.459,2.54  c0.082,5.042,0.63,9.945,1.585,14.61c-1.17-2.84-2.156-5.907-2.918-9.146c-0.317-1.343-1.659-2.176-3.006-1.861  c-1.345,0.316-2.178,1.662-1.861,3.006c1.44,6.118,3.557,11.599,6.243,16.249c-2.312-2.311-4.432-5.235-6.249-8.677  c-0.645-1.222-2.157-1.687-3.378-1.044c-1.221,0.645-1.688,2.157-1.044,3.378c1.994,3.778,4.289,6.989,6.82,9.589  c-0.212,0.181-0.407,0.344-0.626,0.533c-0.377,0.326-0.712,0.689-1.019,1.072c-1.28-0.749-2.535-1.677-3.756-2.787  c-1.022-0.93-2.604-0.854-3.532,0.167c-0.929,1.021-0.854,2.603,0.167,3.531c1.697,1.544,3.482,2.81,5.323,3.799  c-0.008,0.143-0.023,0.285-0.023,0.429c0,1.448,0.387,2.848,1.091,4.078c-1.365,0.052-2.736-0.085-4.104-0.426  c-1.344-0.338-2.697,0.481-3.03,1.821c-0.334,1.34,0.481,2.697,1.821,3.03c1.569,0.391,3.148,0.584,4.725,0.584  c1.667,0,3.326-0.241,4.964-0.667c0.371,0.304,0.739,0.605,1.086,0.882c-2.618,2.805-5.509,4.803-8.508,5.834  c-1.306,0.449-2.001,1.871-1.552,3.177C17.152,69.349,18.122,70,19.16,70c0.27,0,0.544-0.044,0.813-0.136  c3.315-1.139,6.427-3.105,9.258-5.82c-1.986,4.39-4.434,8.157-7.215,11.028c-0.961,0.992-0.937,2.574,0.056,3.535  c0.485,0.471,1.112,0.705,1.739,0.705c0.652,0,1.305-0.254,1.795-0.76c2.313-2.387,4.385-5.232,6.191-8.458  c-0.979,4.21-2.307,8.185-3.98,11.728c-0.59,1.249-0.056,2.739,1.193,3.328c0.345,0.163,0.708,0.24,1.065,0.24  c0.938,0,1.836-0.529,2.263-1.433c1.49-3.154,2.729-6.544,3.706-10.113c-0.179,3.622-0.608,7.211-1.294,10.669  c-0.269,1.354,0.611,2.67,1.966,2.938c0.164,0.033,0.328,0.048,0.489,0.048c1.169,0,2.213-0.824,2.449-2.014  c0.771-3.887,1.233-7.928,1.404-12.002c0.444,3.09,0.718,6.253,0.77,9.445c0.018,1.095,0.742,2.003,1.727,2.326  C40.349,88.28,36.686,90,32.798,90C20.228,90,10,72.056,10,50S20.228,10,32.798,10z M46.58,89.252  C55.011,81.609,60.596,67.059,60.596,50S55.011,18.391,46.58,10.748C57.062,14.34,65,30.571,65,50S57.062,85.66,46.58,89.252z   M55.607,89.599C64.251,82.052,70,67.314,70,50s-5.749-32.052-14.393-39.599C75.017,13.137,90,29.847,90,50  S75.017,86.863,55.607,89.599z"></path></svg>