<svg xmlns="http://www.w3.org/2000/svg" xmlns:xlink="http://www.w3.org/1999/xlink" version="1.1" x="0px" y="0px" viewBox="0 0 100 100" enable-background="new 0 0 100 100" xml:space="preserve"><path d="M91.176,39.206c-1.727,0-3.125,1.399-3.125,3.125v10.31h-5.16V34.028c0-3.314-2.686-5.999-5.998-5.999H59.719V23.34h10.313  c1.727,0,3.123-1.398,3.123-3.125c0-1.726-1.396-3.125-3.123-3.125H43.16c-1.726,0-3.123,1.399-3.123,3.125  c0,1.727,1.397,3.125,3.123,3.125h10.311v4.688H41.036c0,0-2.657-0.139-4.229,0.333c-1.574,0.473-3.153,2.464-3.153,2.464  l-7.558,7.785h-4.142c-3.313,0-5.999,2.686-5.999,5.999v8.031H11.95v-10.31c0-1.726-1.398-3.125-3.125-3.125S5.7,40.605,5.7,42.331  v26.873c0,1.725,1.398,3.125,3.125,3.125c1.726,0,3.125-1.4,3.125-3.125V58.891h4.006v8.162c0,3.313,2.687,5.998,5.999,5.998h3.031  l8.354,6.98c0,0,1.698,1.428,3.778,2.121c1.885,0.629,5.305,0.758,5.305,0.758h22.44c0,0,1.189,0,2.08-0.377  c0.891-0.375,1.441-1.334,1.441-1.334l6.309-8.146h2.197c3.313,0,6-2.686,6-5.998v-8.164h5.158v10.313  c0,1.727,1.4,3.125,3.127,3.125c1.725,0,3.123-1.4,3.123-3.125V42.331C94.301,40.605,92.902,39.206,91.176,39.206 M43.925,72.953  l5.521-16.111h-7.465l9.721-19.164h11.389l-7.775,15.97h7.914L43.925,72.953z"></path></svg>