<svg xmlns="http://www.w3.org/2000/svg" xmlns:xlink="http://www.w3.org/1999/xlink" viewBox="0 0 84 84" version="1.1" xml:space="preserve" style="" x="0px" y="0px" fill-rule="evenodd" clip-rule="evenodd" stroke-linejoin="round" stroke-miterlimit="1.41421"><g transform="matrix(1,0,0,1,-4.73263,-0.501912)"><path d="M49.062,9.412C47.511,9.303 45.954,9.303 44.403,9.412L43.833,12.096C42.408,12.232 40.994,12.468 39.602,12.802L38.191,10.449C36.689,10.849 35.217,11.354 33.785,11.961L34.117,14.685C32.814,15.276 31.553,15.958 30.345,16.726L28.246,14.959C26.956,15.825 25.727,16.781 24.57,17.82L25.769,20.288C24.728,21.271 23.757,22.325 22.864,23.444L20.305,22.454C19.365,23.692 18.514,24.995 17.757,26.353L19.692,28.299C19.026,29.566 18.451,30.879 17.969,32.227L15.227,32.121C14.74,33.598 14.358,35.107 14.083,36.637L16.545,37.849C16.327,39.263 16.209,40.692 16.191,42.123L13.563,42.913C13.583,44.468 13.711,46.019 13.948,47.556L16.67,47.902C16.923,49.311 17.275,50.701 17.723,52.06L15.494,53.661C16.017,55.125 16.642,56.551 17.365,57.927L20.053,57.371C20.749,58.622 21.533,59.821 22.399,60.962L20.81,63.199C21.78,64.414 22.834,65.56 23.965,66.627L26.326,65.228C27.391,66.185 28.522,67.065 29.711,67.863L28.935,70.495C30.247,71.329 31.616,72.07 33.032,72.712L34.811,70.623C36.129,71.182 37.485,71.647 38.868,72.016L38.989,74.757C40.501,75.12 42.036,75.376 43.584,75.524L44.588,72.97C46.016,73.071 47.449,73.071 48.877,72.97L49.882,75.524C51.429,75.376 52.965,75.12 54.476,74.757L54.597,72.016C55.981,71.647 57.336,71.182 58.654,70.623L60.433,72.712C61.849,72.07 63.218,71.329 64.53,70.495L63.754,67.863C64.943,67.065 66.074,66.185 67.139,65.228L69.5,66.627C70.631,65.56 71.685,64.414 72.655,63.199L71.067,60.962C71.932,59.821 72.716,58.622 73.413,57.371L76.1,57.927C76.823,56.551 77.448,55.125 77.971,53.661L75.742,52.06C76.19,50.701 76.542,49.311 76.795,47.902L79.517,47.556C79.754,46.019 79.883,44.468 79.902,42.913L77.274,42.123C77.256,40.692 77.138,39.263 76.92,37.849L79.382,36.637C79.107,35.107 78.725,33.598 78.238,32.121L75.496,32.227C75.015,30.879 74.439,29.566 73.773,28.299L75.708,26.353C74.951,24.995 74.1,23.692 73.16,22.454L70.601,23.444C69.708,22.325 68.738,21.271 67.696,20.288L68.895,17.82C67.738,16.781 66.51,15.825 65.219,14.959L63.12,16.726C61.912,15.958 60.652,15.276 59.348,14.685L59.68,11.961C58.248,11.354 56.776,10.849 55.274,10.449L53.863,12.802C52.471,12.468 51.057,12.232 49.632,12.096L49.062,9.412ZM46.733,16.246C61.224,16.246 72.989,28.011 72.989,42.502C72.989,56.993 61.224,68.758 46.733,68.758C32.242,68.758 20.477,56.993 20.477,42.502C20.477,28.011 32.242,16.246 46.733,16.246Z"></path></g><g transform="matrix(0.310814,0,0,0.310814,19.3535,35.9283)"><path d="M49.062,9.412C47.511,9.303 45.954,9.303 44.403,9.412L43.833,12.096C42.408,12.232 40.994,12.468 39.602,12.802L38.191,10.449C36.689,10.849 35.217,11.354 33.785,11.961L34.117,14.685C32.814,15.276 31.553,15.958 30.345,16.726L28.246,14.959C26.956,15.825 25.727,16.781 24.57,17.82L25.769,20.288C24.728,21.271 23.757,22.325 22.864,23.444L20.305,22.454C19.365,23.692 18.514,24.995 17.757,26.353L19.692,28.299C19.026,29.566 18.451,30.879 17.969,32.227L15.227,32.121C14.74,33.598 14.358,35.107 14.083,36.637L16.545,37.849C16.327,39.263 16.209,40.692 16.191,42.123L13.563,42.913C13.583,44.468 13.711,46.019 13.948,47.556L16.67,47.902C16.923,49.311 17.275,50.701 17.723,52.06L15.494,53.661C16.017,55.125 16.642,56.551 17.365,57.927L20.053,57.371C20.749,58.622 21.533,59.821 22.399,60.962L20.81,63.199C21.78,64.414 22.834,65.56 23.965,66.627L26.326,65.228C27.391,66.185 28.522,67.065 29.711,67.863L28.935,70.495C30.247,71.329 31.616,72.07 33.032,72.712L34.811,70.623C36.129,71.182 37.485,71.647 38.868,72.016L38.989,74.757C40.501,75.12 42.036,75.376 43.584,75.524L44.588,72.97C46.016,73.071 47.449,73.071 48.877,72.97L49.882,75.524C51.429,75.376 52.965,75.12 54.476,74.757L54.597,72.016C55.981,71.647 57.336,71.182 58.654,70.623L60.433,72.712C61.849,72.07 63.218,71.329 64.53,70.495L63.754,67.863C64.943,67.065 66.074,66.185 67.139,65.228L69.5,66.627C70.631,65.56 71.685,64.414 72.655,63.199L71.067,60.962C71.932,59.821 72.716,58.622 73.413,57.371L76.1,57.927C76.823,56.551 77.448,55.125 77.971,53.661L75.742,52.06C76.19,50.701 76.542,49.311 76.795,47.902L79.517,47.556C79.754,46.019 79.883,44.468 79.902,42.913L77.274,42.123C77.256,40.692 77.138,39.263 76.92,37.849L79.382,36.637C79.107,35.107 78.725,33.598 78.238,32.121L75.496,32.227C75.015,30.879 74.439,29.566 73.773,28.299L75.708,26.353C74.951,24.995 74.1,23.692 73.16,22.454L70.601,23.444C69.708,22.325 68.738,21.271 67.696,20.288L68.895,17.82C67.738,16.781 66.51,15.825 65.219,14.959L63.12,16.726C61.912,15.958 60.652,15.276 59.348,14.685L59.68,11.961C58.248,11.354 56.776,10.849 55.274,10.449L53.863,12.802C52.471,12.468 51.057,12.232 49.632,12.096L49.062,9.412ZM46.733,16.246C61.224,16.246 72.989,28.011 72.989,42.502C72.989,56.993 61.224,68.758 46.733,68.758C32.242,68.758 20.477,56.993 20.477,42.502C20.477,28.011 32.242,16.246 46.733,16.246Z"></path></g><g transform="matrix(0.310814,0,0,0.310814,35.1763,21.7152)"><path d="M49.062,9.412C47.511,9.303 45.954,9.303 44.403,9.412L43.833,12.096C42.408,12.232 40.994,12.468 39.602,12.802L38.191,10.449C36.689,10.849 35.217,11.354 33.785,11.961L34.117,14.685C32.814,15.276 31.553,15.958 30.345,16.726L28.246,14.959C26.956,15.825 25.727,16.781 24.57,17.82L25.769,20.288C24.728,21.271 23.757,22.325 22.864,23.444L20.305,22.454C19.365,23.692 18.514,24.995 17.757,26.353L19.692,28.299C19.026,29.566 18.451,30.879 17.969,32.227L15.227,32.121C14.74,33.598 14.358,35.107 14.083,36.637L16.545,37.849C16.327,39.263 16.209,40.692 16.191,42.123L13.563,42.913C13.583,44.468 13.711,46.019 13.948,47.556L16.67,47.902C16.923,49.311 17.275,50.701 17.723,52.06L15.494,53.661C16.017,55.125 16.642,56.551 17.365,57.927L20.053,57.371C20.749,58.622 21.533,59.821 22.399,60.962L20.81,63.199C21.78,64.414 22.834,65.56 23.965,66.627L26.326,65.228C27.391,66.185 28.522,67.065 29.711,67.863L28.935,70.495C30.247,71.329 31.616,72.07 33.032,72.712L34.811,70.623C36.129,71.182 37.485,71.647 38.868,72.016L38.989,74.757C40.501,75.12 42.036,75.376 43.584,75.524L44.588,72.97C46.016,73.071 47.449,73.071 48.877,72.97L49.882,75.524C51.429,75.376 52.965,75.12 54.476,74.757L54.597,72.016C55.981,71.647 57.336,71.182 58.654,70.623L60.433,72.712C61.849,72.07 63.218,71.329 64.53,70.495L63.754,67.863C64.943,67.065 66.074,66.185 67.139,65.228L69.5,66.627C70.631,65.56 71.685,64.414 72.655,63.199L71.067,60.962C71.932,59.821 72.716,58.622 73.413,57.371L76.1,57.927C76.823,56.551 77.448,55.125 77.971,53.661L75.742,52.06C76.19,50.701 76.542,49.311 76.795,47.902L79.517,47.556C79.754,46.019 79.883,44.468 79.902,42.913L77.274,42.123C77.256,40.692 77.138,39.263 76.92,37.849L79.382,36.637C79.107,35.107 78.725,33.598 78.238,32.121L75.496,32.227C75.015,30.879 74.439,29.566 73.773,28.299L75.708,26.353C74.951,24.995 74.1,23.692 73.16,22.454L70.601,23.444C69.708,22.325 68.738,21.271 67.696,20.288L68.895,17.82C67.738,16.781 66.51,15.825 65.219,14.959L63.12,16.726C61.912,15.958 60.652,15.276 59.348,14.685L59.68,11.961C58.248,11.354 56.776,10.849 55.274,10.449L53.863,12.802C52.471,12.468 51.057,12.232 49.632,12.096L49.062,9.412ZM46.733,16.246C61.224,16.246 72.989,28.011 72.989,42.502C72.989,56.993 61.224,68.758 46.733,68.758C32.242,68.758 20.477,56.993 20.477,42.502C20.477,28.011 32.242,16.246 46.733,16.246Z"></path></g></svg>