<svg xmlns="http://www.w3.org/2000/svg" xmlns:xlink="http://www.w3.org/1999/xlink" version="1.1" x="0px" y="0px" viewBox="0 0 164 164" enable-background="new 0 0 164 164" xml:space="preserve"><path fill-rule="evenodd" clip-rule="evenodd" fill="#000000" d="M71.469,28.176c-0.661,6.033-3.914,11.531-6.917,16.718  c1.015,0.23,2.011,0.353,3.048,0.262c4.055-7.529,5.757-9.867,13.112-14.915c3.207-2.2,3.763-2.486,7.704-1.803  c6.832,1.185,14.611,5.944,19.274,10.949c1.923,2.063,2.375,2.529-1.312,6.163c-4.008,3.951-13.143,5.364-13.768,8.49  c9.531,4.433,19.496,2.635,26.716,9.407c5.05,4.737,3.044,12.388,15.964,14.325c7.035,1.054,8.037-10.859,23.503-17.144  c6.004-2.44,2.546,4.957,1.147,10.981c-2.291,9.872-5.721,9.026-10.129,16.029c-1.635,2.598-1.685,4.2-0.426,7.081  c2.017,4.614,6.537,7.849,9.146,12.128c2.229,3.659,5.521,5.86,5.113,7.9c-7.946,3.971-20.021-4.511-25.306-9.965  c-6.111-6.308-8.025-12.434-11.112-13.342c0.763,1.571,1.768,2.977,2.458,4.589c-3.051,3.095-6.825,4.863-10.293,7.441  c-6.447-2.424-11.993-4.693-18.881-5.605c-1.83,1.743-3.688,3.342-5.245,5.343c5.053-1.263,10.834-3.649,15.8-0.918  c-0.704,1.871-5.593,11.883-7.408,11.703c-4.186-0.416-8.58-1.171-12.456-2.721c-0.22,2.451-0.542,4.808-1.213,7.179  c4.887-3.04,8.019-7.657,12.85-2.229c3.439,3.865,1.896,10.895-0.655,14.85c-1.196,1.854-3.482,6.779-6.425,5.934  c-1.304-0.375-6.501-4.98-7.507-6.196c-2.252,2.514-4.253,2.402-9.047,2.951c-5.41,0.617-10.578-1.104-15.964-1.312  c-2.436-0.094-9.413-0.417-11.375-1.049c-1.91-0.616-8.643,0.137-10.981,0.229l-0.066,0.491c-0.032,0.033-0.065,0.065-0.098,0.099  l-0.655-0.427c-9.194,0.511-10.249,0.214-16.718-6.588c-5.164-5.431-3.515-5.978-11.21-13.932c-4.935-5.102-5.484-9.5-8.818-15.243  c-1.877-3.234-0.336-7.05-1.967-10.358c-2.111-4.282-1.726-8.918,0.983-8.293c0.055,0.164,0.109,0.328,0.164,0.492  c0.47,0.18,0.931,0.168,1.41,0.328c-0.709,0.709-1.515,1.016-1.672,2.065c0.93-0.155,1.61-0.5,2.557-0.263  c-0.861,0.913-1.639,1.238-1.639,2.524c0.95-0.413,1.774-0.885,2.819-0.885c-0.577,0.887-1.234,1.727-1.671,2.688  c0.587,0.904,1.282,1.653,2.065,2.394c0.753-0.353,1.311-0.897,2.131-0.656c-0.355,0.761-0.656,1.382-0.656,2.229  c3.814,3.681,8.097,6.654,11.637,10.62c0-0.021,0-0.044,0-0.065c0.022,0,0.043,0,0.065,0c-3.63-6.139-5.869-12.57-7.9-19.34  c-0.835,0.334-1.599,0.829-2.458,1.082c-0.087-0.109-0.174-0.218-0.262-0.328c0.309-1.339,1.466-2.178,2.065-3.376  c-1.323,0.236-2.125,0.897-3.212,1.639c-0.033-0.033-0.066-0.066-0.099-0.098l-0.164-0.066c0-1.264,1.866-2.788,2.721-3.541  l-0.164-0.589c-1.281,0.476-4.221,1.474-4.524,2.983c-0.087,0.055-0.174,0.109-0.262,0.164c-0.076-0.033-0.153-0.065-0.229-0.099  c0.095-1.043,0.618-1.89,1.147-2.786c-0.021-0.033-0.043-0.066-0.065-0.099H5.778c0.901-2.815,4.537-5.426,6.786-9.31  c7.532-13.007,18.045-5.588,19.012-13.439c0.437-3.549,0.608-3.578,6.523-8.064c6.484-4.917,23.725-15.047,31.305-16.324  C70.31,27.106,71.089,27.37,71.469,28.176z"></path></svg>