<svg xmlns="http://www.w3.org/2000/svg" xmlns:xlink="http://www.w3.org/1999/xlink" version="1.1" x="0px" y="0px" viewBox="0 0 48 48" style="enable-background:new 0 0 48 48;" xml:space="preserve"><style type="text/css">
	.st0{fill:#FFFFFF;}
	.st1{fill:none;stroke:#000000;stroke-width:3;stroke-linecap:round;stroke-miterlimit:10;}
</style><path d="M39.2,11l0.9-0.9c0.6-0.6,0.6-1.5,0-2.1s-1.5-0.6-2.1,0L37,8.8C33.5,5.8,29,4,24,4c-3.7,0-7.1,1-10.1,2.7  C13.4,6.3,12.7,6,12,6c-1.7,0-3,1.3-3,3c0,0.5,0.1,1,0.4,1.4C6,14,4,18.7,4,24c0,11,9,20,20,20s20-9,20-20C44,19,42.2,14.5,39.2,11z   M24,42c-9.9,0-18-8.1-18-18c0-4.7,1.8-9,4.8-12.2c0.4,0.2,0.8,0.2,1.2,0.2c1.7,0,3-1.3,3-3c0-0.2,0-0.4-0.1-0.5  C17.6,6.9,20.7,6,24,6c4.4,0,8.5,1.6,11.6,4.3l-2.8,2.8C30.4,11.2,27.3,10,24,10c-7.7,0-14,6.3-14,14c0,3.9,1.6,7.4,4.2,10  c-0.1,0.3-0.2,0.7-0.2,1c0,1.7,1.3,3,3,3c0.8,0,1.6-0.3,2.1-0.9c1.5,0.6,3.2,0.9,4.9,0.9c7.7,0,14-6.3,14-14c0-3.3-1.2-6.4-3.1-8.8  l2.8-2.8C40.4,15.5,42,19.6,42,24C42,33.9,33.9,42,24,42z M17,32c-0.6,0-1.1,0.2-1.5,0.4C13.3,30.3,12,27.3,12,24  c0-6.6,5.4-12,12-12c2.8,0,5.3,1,7.3,2.5l-2.9,2.9c-1.1-0.7-2.3-1.2-3.7-1.3c-0.4-1.2-1.5-2-2.8-2c-1.7,0-3,1.3-3,3  c0,0.2,0,0.5,0.1,0.7C17.2,19.2,16,21.4,16,24c0,4.4,3.6,8,8,8s8-3.6,8-8c0-1.7-0.5-3.2-1.4-4.5l2.9-2.9c1.6,2,2.5,4.6,2.5,7.3  c0,6.6-5.4,12-12,12c-1.4,0-2.8-0.3-4-0.7c0-0.1,0-0.2,0-0.3C20,33.3,18.7,32,17,32z M30,24c0,3.3-2.7,6-6,6s-6-2.7-6-6  c0-1.9,0.9-3.5,2.2-4.6c0.5,0.4,1.1,0.6,1.8,0.6c1.3,0,2.4-0.8,2.8-1.9c0.8,0.1,1.6,0.4,2.2,0.8l-4.1,4.1c-0.6,0.6-0.6,1.5,0,2.1  c0.3,0.3,0.7,0.4,1.1,0.4s0.8-0.1,1.1-0.4l4.1-4.1C29.7,21.9,30,22.9,30,24z"></path></svg>