<svg xmlns="http://www.w3.org/2000/svg" xmlns:xlink="http://www.w3.org/1999/xlink" xml:space="preserve" version="1.1" style="shape-rendering:geometricPrecision;text-rendering:geometricPrecision;image-rendering:optimizeQuality;" viewBox="0 0 674 616" x="0px" y="0px" fill-rule="evenodd" clip-rule="evenodd"><defs><style type="text/css">
   
    .fil0 {fill:black}
   
  </style></defs><g><path class="fil0" d="M211 477c-58,73 -245,16 -206,-105 44,-134 166,-30 123,1 14,-50 -77,-95 -105,4 -27,101 140,143 173,67 0,13 4,24 15,33z"></path><path class="fil0" d="M490 462c42,47 187,11 161,-85 -28,-99 -119,-54 -105,-4 -43,-31 79,-135 123,-1 38,118 -139,176 -201,110 9,-3 17,-9 22,-20z"></path><path class="fil0" d="M345 0c52,0 142,183 124,215 -8,14 -24,16 -44,14 -12,-24 -48,-92 -80,-92 -33,0 -69,67 -82,93 -19,2 -35,-1 -43,-15 -19,-34 72,-215 125,-215z"></path><path class="fil0" d="M380 499c-1,1 -3,2 -4,2 -3,54 -24,60 -5,115 -39,-25 -19,-66 -21,-110 -7,0 -14,0 -20,0 -4,17 -9,35 -6,59 1,13 12,44 -7,50 -1,-9 3,-11 -1,-21 -15,-37 -16,-53 -12,-93 -4,-1 -7,-3 -8,-6 -3,7 -7,14 -13,25 -15,30 8,50 -15,72 -6,6 -6,5 -15,8 11,-24 -2,5 7,-14 12,-24 -13,-35 2,-76 2,-7 4,-12 6,-17 -4,9 -10,17 -19,28 -27,30 -1,83 -34,82 16,-27 -13,-44 21,-108 -6,6 -15,13 -27,21 -29,20 -36,68 -76,61 42,-30 28,-51 63,-81 9,-7 14,-12 18,-17 31,19 96,-16 131,-16 37,0 83,27 118,20 4,3 8,7 15,13 35,30 21,51 63,81 -40,7 -47,-41 -76,-61 -12,-8 -21,-15 -27,-21 7,13 17,18 20,42 4,31 -15,34 1,66 -38,-5 -5,-50 -34,-82 -9,-11 -15,-19 -19,-28 2,5 4,10 6,17 14,38 -10,47 9,90 -44,-15 -14,-49 -30,-80 -5,-8 -8,-15 -11,-21zm-39 -32c16,0 29,7 29,17 0,9 -13,11 -29,11 -16,0 -28,-2 -28,-11 0,-10 13,-17 28,-17z"></path><path class="fil0" d="M354 146c-7,-3 -12,-3 -19,0 -27,12 -60,67 -86,128 -15,33 -60,150 -44,184 21,47 92,-2 140,-2 47,0 120,46 140,2 14,-32 -31,-151 -45,-182 -26,-62 -59,-118 -86,-130z"></path></g></svg>