<svg xmlns="http://www.w3.org/2000/svg" xmlns:xlink="http://www.w3.org/1999/xlink" version="1.1" x="0px" y="0px" viewBox="0 0 100 100" enable-background="new 0 0 100 100" xml:space="preserve"><g display="none"><rect x="-1014" y="-488.38" display="inline" fill="#000000" stroke="#000000" stroke-width="1.0255" stroke-miterlimit="10" width="1370" height="1329.38"></rect></g><g><path d="M69.664,47.415c-0.229-0.685-0.869-1.146-1.591-1.146H51.863c-0.539,0-1.045,0.259-1.36,0.696   c-0.315,0.437-0.401,1-0.23,1.511l3.414,10.242c0.229,0.685,0.869,1.146,1.591,1.146h16.211c0.539,0,1.045-0.259,1.36-0.696   c0.315-0.437,0.401-1,0.23-1.511L69.664,47.415z M56.486,56.51l-2.296-6.888h12.675l2.296,6.888H56.486z"></path><path d="M97.263,69.345c-1.013-0.452-2.2,0.001-2.653,1.013l-1.771,3.957L77.297,31.055l3.312-7.39c0.453-1.012,0-2.2-1.013-2.653   c-1.013-0.452-2.2,0-2.653,1.013l-1.917,4.283l-1.97-4.396c-0.453-1.012-1.642-1.464-2.653-1.011   c-1.012,0.454-1.465,1.642-1.011,2.654l2.544,5.679H33.758l1.638-3.654c0.504-1.124,0.001-2.444-1.123-2.949   c-1.125-0.505-2.443-0.002-2.949,1.123l-1.892,4.222l-1.888-4.219c-0.502-1.125-1.823-1.628-2.947-1.127   c-1.125,0.502-1.63,1.822-1.127,2.947l3.424,7.651l-8.19,18.684L7.929,75.913l-2.54-5.669c-0.453-1.012-1.643-1.466-2.653-1.011   c-1.012,0.454-1.465,1.642-1.011,2.654l3.311,7.39h89.977l3.263-7.278C98.729,70.986,98.276,69.798,97.263,69.345z M8.057,76.199   l-0.049-0.109c0.113-0.188,0.19-0.288,0.191-0.215L8.057,76.199z M26.307,75.698l3.71-9.751l3.327,9.731L26.307,75.698z    M37.474,75.666l-5.509-16.109c-0.267-0.779-0.993-1.309-1.817-1.322c-0.788-0.031-1.568,0.49-1.861,1.26L22.117,75.71   l-8.985,0.026l9.632-21.974l6.665-14.87l16.446,36.75L37.474,75.666z M57.345,75.608l1.667-3.722   c0.454-1.012,0.001-2.2-1.011-2.654c-1.011-0.455-2.2-0.001-2.653,1.011l-2.409,5.377l-2.194,0.006   c-0.013-0.034-0.019-0.069-0.034-0.103L31.991,33.694h40.478c0.194,0.423,0.527,0.785,0.984,0.994   c0.149,0.068,0.303,0.112,0.458,0.142L88.53,75.518L57.345,75.608z"></path></g></svg>