<svg xmlns="http://www.w3.org/2000/svg" data-name="Layer 1" viewBox="0 0 100 100" x="0px" y="0px"><title>Artboard 1</title><path d="M95.09186,15.49695c-.43274-2.69263-2.49585-6.27655-8.62653-7.41388C80.412,6.96008,73.139,10.60883,67.771,12.37378c-4.34326-3.457-10.48877-5.36371-17.30212-5.36371-6.8363,0-12.99994,1.91974-17.34564,5.39893C27.745,10.658,20.41492,6.95251,14.3208,8.08307,8.19012,9.2204,6.127,12.80432,5.69421,15.49695,4.0329,25.83472,9.84021,27.1037,8.667,42.5047,7.45441,58.42285,17.49707,68.511,21.957,68.81732c6.30658.43311,10.9-4.02258,13.78607-11.14288a25.2584,25.2584,0,0,0,3.03925,3.20282l-.003.44922c-.06689,9.966-6.98383,17.54407-9.79559,17.54407h-.00629l-.501.001-.04456.49042c-.069.76147,1.74219,1.09161,1.76031,1.095a6.66186,6.66186,0,0,0,1.16656.10266c5.34119,0,10.60822-6.36847,12.57935-15.33612A54.47016,54.47016,0,0,0,48.072,84.71814a12.91238,12.91238,0,0,0,9.34363,8.02545c6.05444,1.05432,8.76447-1.40845,8.76813-4.86261.00409-3.77063-4.07355-.74365-7.35315-5.88715-2.2793-4.14545-1.98926-10.8103-1.86932-16.41333,2.03168,8.77692,7.23315,14.97925,12.49982,14.97876a6.64729,6.64729,0,0,0,1.16376-.10229c.01837-.00336,1.82947-.33331,1.7605-1.095l-.0531-.49341-.49194.002H71.834C69.04437,78.87,62.15063,71.33209,62.04,61.4201l-.00494-.43958a25.0416,25.0416,0,0,0,3.05988-3.1806l-.00049.00067c2.889,7.04675,7.46545,11.44727,13.73474,11.01672,4.4599-.30627,14.50256-10.39447,13.28992-26.31262C90.94592,27.1037,96.75323,25.83472,95.09186,15.49695ZM30.7204,79.45032c3.63989-1.86035,8.64148-8.769,9.09833-17.04492a19.80264,19.80264,0,0,0,3.20654,1.95325C41.22168,73.39948,35.81036,80.02332,30.7204,79.45032Zm8.93286-42.44983a3.54727,3.54727,0,1,1,3.5473-3.5473A3.54727,3.54727,0,0,1,39.65326,37.00049ZM70.10211,79.44965c-5.06879.58148-10.48535-6.02643-12.29926-15.039A19.68994,19.68994,0,0,0,61.00452,62.489C61.49109,70.72107,66.48114,77.59418,70.10211,79.44965Zm-8.9693-42.44916a3.54727,3.54727,0,1,1,3.5473-3.5473A3.54727,3.54727,0,0,1,61.13281,37.00049Z"></path></svg>