<svg xmlns:dc="http://purl.org/dc/elements/1.1/" xmlns:cc="http://creativecommons.org/ns#" xmlns:rdf="http://www.w3.org/1999/02/22-rdf-syntax-ns#" xmlns:svg="http://www.w3.org/2000/svg" xmlns="http://www.w3.org/2000/svg" xmlns:sodipodi="http://sodipodi.sourceforge.net/DTD/sodipodi-0.dtd" xmlns:inkscape="http://www.inkscape.org/namespaces/inkscape" version="1.1" x="0px" y="0px" viewBox="0 0 100 100"><g transform="translate(0,-952.36218)"><path style="font-size:medium;font-style:normal;font-variant:normal;font-weight:normal;font-stretch:normal;text-indent:0;text-align:start;text-decoration:none;line-height:normal;letter-spacing:normal;word-spacing:normal;text-transform:none;direction:ltr;block-progression:tb;writing-mode:lr-tb;text-anchor:start;baseline-shift:baseline;opacity:1;color:#000000;fill:#000000;fill-opacity:1;stroke:none;stroke-width:4;marker:none;visibility:visible;display:inline;overflow:visible;enable-background:accumulate;font-family:Sans;-inkscape-font-specification:Sans" d="M 22.8125 6 A 2.0002 2.0002 0 0 0 21 8 L 21 92 A 2.0002 2.0002 0 0 0 24.25 93.5625 L 50 72.59375 L 75.75 93.5625 A 2.0002 2.0002 0 0 0 79 92 L 79 8 A 2.0002 2.0002 0 0 0 77 6 L 23 6 A 2.0002 2.0002 0 0 0 22.8125 6 z M 25 10 L 75 10 L 75 87.78125 L 51.25 68.4375 A 2.0002 2.0002 0 0 0 48.75 68.4375 L 25 87.78125 L 25 10 z M 49.8125 23 A 2.0002 2.0002 0 0 0 48.21875 24.09375 L 43.65625 33.21875 L 33.65625 35.03125 A 2.0002 2.0002 0 0 0 32.6875 38.5 L 39.8125 44.75 L 38.03125 54.625 A 2.0002 2.0002 0 0 0 40.90625 56.78125 L 50 52.25 L 59.09375 56.78125 A 2.0002 2.0002 0 0 0 61.96875 54.625 L 60.1875 44.75 L 67.3125 38.5 A 2.0002 2.0002 0 0 0 66.34375 35.03125 L 56.34375 33.21875 L 51.78125 24.09375 A 2.0002 2.0002 0 0 0 49.8125 23 z M 50 29.4375 L 53.21875 35.875 A 2.0002 2.0002 0 0 0 54.65625 36.96875 L 61.53125 38.21875 L 56.6875 42.46875 A 2.0002 2.0002 0 0 0 56.03125 44.34375 L 57.3125 51.375 L 50.90625 48.1875 A 2.0002 2.0002 0 0 0 49.09375 48.1875 L 42.6875 51.375 L 43.96875 44.34375 A 2.0002 2.0002 0 0 0 43.3125 42.46875 L 38.46875 38.21875 L 45.34375 36.96875 A 2.0002 2.0002 0 0 0 46.78125 35.875 L 50 29.4375 z " transform="translate(0,952.36218)"></path></g></svg>