<svg xmlns="http://www.w3.org/2000/svg" xmlns:xlink="http://www.w3.org/1999/xlink" version="1.1" x="0px" y="0px" viewBox="0 0 100 100" enable-background="new 0 0 100 100" xml:space="preserve"><path d="M88.94,85.856c-8.587,5.367-20.395-13.954-17.174-10.734c3.22,3.22,13.417,2.684,21.468-5.367  c10.198-10.197,1.664-24.099-1.073-26.836c-1.609-1.61-4.83-4.83-7.514-2.146c-2.146,2.146-1.61,3.757,0,5.367  c13.515,13.515-1.974,19.321-5.367,19.321c-3.221,0-11.808,0-11.808-11.808c0-9.661,10.734-13.055,10.734-23.79  C78.207,4.102,50.298,5,50.298,5H48l0,0c-5,0.116-26.529,2.296-26.529,25.038c0,10.734,10.888,13.954,10.888,23.615  c0,11.808-8.51,11.808-11.731,11.808c-3.395,0-18.843-5.807-5.329-19.321c1.61-1.61,2.166-3.221,0.019-5.367  c-2.684-2.684-5.894,0.537-7.504,2.146C5.077,45.656-3.453,59.558,6.745,69.755c8.051,8.051,18.251,8.587,21.471,5.367  c3.221-3.22-8.586,16.102-17.173,10.734C8,84,6.749,86.93,6.749,86.93S3,91,10.126,94.443c0,0,8.874,5.367,39.874-21.468V73h0.298  c31.129,27,39.717,21.455,39.717,21.455c5.985-2.455,3.22-7.52,3.22-7.52S92,84,88.94,85.856z M40.563,48.287  c-2.075,0-3.757-1.683-3.757-3.757c0-2.075,1.683-3.757,3.757-3.757s3.757,1.682,3.757,3.757  C44.32,46.604,42.638,48.287,40.563,48.287z M59.886,48.287c-2.075,0-3.758-1.683-3.758-3.757c0-2.075,1.683-3.757,3.758-3.757  c2.074,0,3.757,1.682,3.757,3.757C63.643,46.604,61.96,48.287,59.886,48.287z"></path></svg>